<?xml version="1.0" encoding="utf-8"?>
<!-- Generator: Adobe Illustrator 25.0.0, SVG Export Plug-In . SVG Version: 6.00 Build 0)  -->
<svg version="1.1" id="Layer_1" xmlns="http://www.w3.org/2000/svg" xmlns:xlink="http://www.w3.org/1999/xlink" x="0px" y="0px"
	 viewBox="0 0 195.2 194.2" style="enable-background:new 0 0 195.2 194.2;" xml:space="preserve">
<style type="text/css">
	.st0{fill:#3FB54A;}
</style>
<path class="st0" d="M97.6,0C43.6,0,0,43.6,0,97.6c0,40.3,24.7,75.1,59.5,89.8c3.6,1.6,7.2,2.6,10.7,3.9v-11.4v-28.3V119H93
	c2.3,6.2,8.1,10.7,15.3,10.7c9.1,0,16.3-7.2,16.3-16.3s-7.2-16.3-16.3-16.3c-7.2,0-13,4.6-15.3,10.7H70.3V75.5h33.5
	c2.3,6.2,8.1,10.7,15.3,10.7c9.1,0,16.3-7.2,16.3-16.3s-7.2-16.3-16.3-16.3c-7.2,0-13,4.6-15.3,10.7H70.3H59.5v10.7v32.5v10.7v56.3
	c-28.9-14-48.8-43.6-48.8-78.1c0-47.8,38.7-86.8,86.8-86.8c47.8,0,86.8,38.7,86.8,86.8c0,47.8-38.7,86.8-86.8,86.8
	c-5.5,0-11.1-0.7-16.3-1.6v11.1c5.2,1,10.7,1.3,16.3,1.3c54,0,97.6-43.6,97.6-97.6S151.3,0,97.6,0z M108.3,108.3
	c2.9,0,5.5,2.3,5.5,5.5c0,2.9-2.3,5.5-5.5,5.5c-2.9,0-5.5-2.3-5.5-5.5C102.8,110.9,105.4,108.3,108.3,108.3z M119,65.1
	c2.9,0,5.5,2.3,5.5,5.5c0,2.9-2.3,5.5-5.5,5.5s-5.5-2.3-5.5-5.5C113.8,67.3,116.1,65.1,119,65.1z"/>
</svg>
