<?xml version="1.0" encoding="utf-8"?>
<!-- Generator: Adobe Illustrator 23.0.6, SVG Export Plug-In . SVG Version: 6.00 Build 0)  -->
<svg version="1.1" id="Layer_1" xmlns="http://www.w3.org/2000/svg" xmlns:xlink="http://www.w3.org/1999/xlink" x="0px" y="0px"
	 viewBox="0 0 242.4 59.7" style="enable-background:new 0 0 242.4 59.7;" xml:space="preserve">
<style type="text/css">
	.st0{fill:#3DB54A;}
</style>
<g>
	<path class="st0" d="M30,0C13.4,0,0,13.4,0,30c0,12.4,7.6,23.1,18.3,27.6c1.1,0.5,2.2,0.8,3.3,1.2v-3.5v-8.7v-10h7
		c0.7,1.9,2.5,3.3,4.7,3.3c2.8,0,5-2.2,5-5s-2.2-5-5-5c-2.2,0-4,1.4-4.7,3.3h-7v-10h10.3c0.7,1.9,2.5,3.3,4.7,3.3c2.8,0,5-2.2,5-5
		s-2.2-5-5-5c-2.2,0-4,1.4-4.7,3.3H21.6h-3.3v3.3v10v3.3v17.3c-8.9-4.3-15-13.4-15-24C3.3,15,15.2,3,30,3
		c14.7,0,26.7,11.9,26.7,26.7c0,14.7-11.9,26.7-26.7,26.7c-1.7,0-3.4-0.2-5-0.5v3.4c1.6,0.3,3.3,0.4,5,0.4c16.6,0,30-13.4,30-30
		S46.5,0,30,0z M33.3,33.3c0.9,0,1.7,0.7,1.7,1.7c0,0.9-0.7,1.7-1.7,1.7c-0.9,0-1.7-0.7-1.7-1.7C31.6,34.1,32.4,33.3,33.3,33.3z
		 M36.6,20c0.9,0,1.7,0.7,1.7,1.7c0,0.9-0.7,1.7-1.7,1.7s-1.7-0.7-1.7-1.7C35,20.7,35.7,20,36.6,20z"/>
	<g>
		<polygon class="st0" points="81.2,27.2 73.6,27.2 73.6,21.7 81.2,21.7 81.2,18.1 70,18.1 70,41.9 73.6,41.9 73.6,30.7 81.2,30.7 
					"/>
		<path class="st0" d="M97.3,41.9h4l-5.7-10.8l0.6-0.2c1.5-0.5,2.6-1.3,3.3-2.3c0.7-1,1.1-2.3,1.1-3.8c0-1.4-0.3-2.7-1-3.8
			c-0.6-1-1.5-1.8-2.6-2.2c-1.1-0.5-3-0.7-5.6-0.7h-4.5v23.8h3.7V31.3h1.3L97.3,41.9z M90.5,21.7h1.8c1.3,0,2.2,0.1,2.8,0.3
			c0.6,0.2,1,0.6,1.4,1.1c0.3,0.5,0.5,1.1,0.5,1.7c0,1.1-0.4,1.9-1.1,2.4s-1.8,0.7-3.4,0.7h-2L90.5,21.7L90.5,21.7z"/>
		<polygon class="st0" points="119,21.7 119,18.1 106.5,18.1 106.5,41.9 119,41.9 119,38.3 110.1,38.3 110.1,30.7 119,30.7 
			119,27.2 110.1,27.2 110.1,21.7 		"/>
		<path class="st0" d="M125.4,41.3c1.2,0.8,2.7,1.2,4.3,1.2c2.1,0,3.8-0.6,5.1-1.8c1.3-1.2,1.9-2.8,1.9-4.7c0-1-0.2-1.9-0.6-2.7
			s-1-1.7-1.9-2.6c-0.4-0.4-1.5-1.3-3.2-2.8c-2-1.7-3.1-2.7-3.5-3.3c-0.4-0.5-0.5-1-0.5-1.5c0-0.6,0.3-1.1,0.8-1.5s1.1-0.6,1.9-0.6
			c1.3,0,2.6,0.8,3.8,2.3l2.7-2.4c-1.1-1.3-2.2-2.1-3.1-2.6c-1-0.5-2.1-0.8-3.3-0.8c-1.8,0-3.3,0.6-4.5,1.7c-1.2,1.1-1.8,2.5-1.8,4
			c0,1.1,0.4,2.2,1.1,3.3c0.8,1.1,2.5,2.8,5.1,5c1.5,1.2,2.4,2.1,2.8,2.7c0.5,0.7,0.7,1.3,0.7,2c0,0.8-0.3,1.5-1,2
			c-0.6,0.6-1.4,0.8-2.4,0.8c-1.6,0-3.1-1-4.3-3.1l-3.1,1.9C123.3,39.4,124.3,40.5,125.4,41.3z"/>
		<polygon class="st0" points="159.2,41.9 159.2,18.1 155.4,18.1 155.4,27.5 146.1,27.5 146.1,18.1 142.4,18.1 142.4,41.9 
			146.1,41.9 146.1,31 155.4,31 155.4,41.9 		"/>
		<polygon class="st0" points="182.4,41.9 173.2,28.6 181.5,18.1 177.1,18.1 169.6,27.6 169.6,18.1 165.9,18.1 165.9,41.9 
			169.6,41.9 169.6,29.7 178.1,41.9 		"/>
		<path class="st0" d="M198.5,17.5c-2.2,0-4.3,0.6-6.2,1.7c-1.9,1.1-3.4,2.6-4.5,4.5s-1.7,4-1.7,6.3c0,3.4,1.2,6.3,3.5,8.8
			s5.3,3.7,8.9,3.7c3.4,0,6.3-1.2,8.7-3.6c2.4-2.4,3.6-5.4,3.6-8.8c0-3.5-1.2-6.5-3.6-8.9C204.7,18.7,201.8,17.5,198.5,17.5z
			 M204.6,36.4c-1.7,1.7-3.7,2.6-6.1,2.6c-2.1,0-4-0.7-5.6-2c-2.1-1.7-3.1-4-3.1-6.9c0-2.6,0.8-4.8,2.5-6.4c1.7-1.7,3.7-2.5,6.2-2.5
			c2.4,0,4.5,0.9,6.2,2.6c1.7,1.7,2.5,3.9,2.5,6.4C207.1,32.5,206.3,34.7,204.6,36.4z"/>
		<polygon class="st0" points="236.3,26.6 238.9,41.9 242.4,41.9 238.5,18.1 234.7,18.1 228.5,36.5 222.4,18.1 218.6,18.1 
			214.5,41.9 218,41.9 220.7,26.6 221.7,26.5 226.8,41.9 230.2,41.9 235.3,26.5 		"/>
	</g>
</g>
</svg>
